<svg xmlns="http://www.w3.org/2000/svg" viewBox="0 0 151 70.33"><defs><style>.cls-1{isolation:isolate;}.cls-2{opacity:0.78;mix-blend-mode:multiply;}.cls-3{fill:#ffec00;}.cls-4{fill:#1d1d1b;}</style></defs><title>Recurso 5</title><g class="cls-1"><g id="Capa_2" data-name="Capa 2"><g id="Capa_1-2" data-name="Capa 1"><g class="cls-2"><polygon points="112.95 45.2 94.92 55.54 56 3.32 53.67 7.63 56.32 15.16 15.18 70.33 45.11 27.02 52.48 1 57.29 1 95.25 51.61 112.95 45.2"/></g><polygon class="cls-3" points="111.95 44.2 93.92 54.54 55 2.32 52.67 6.63 55.32 14.16 14.18 69.33 44.11 26.02 51.48 0 56.29 0 94.25 50.61 111.95 44.2"/><path class="cls-4" d="M2.47,40.74H2.38l-.25,1.62H0V19.3H2.66v6.31l-.09,2.82a8,8,0,0,1,4.95-2.19c4.06,0,6.25,3.15,6.25,8,0,5.38-3.22,8.51-6.82,8.51A7,7,0,0,1,2.47,40.74ZM11,34.28c0-3.47-1.19-5.8-4.15-5.8-1.33,0-2.72.73-4.21,2.15v8.24a6.06,6.06,0,0,0,3.83,1.64C9.1,40.51,11,38.17,11,34.28Z"/><path class="cls-4" d="M17.25,34.52c0-5.26,3.44-8.28,7.29-8.28s7.29,3,7.29,8.28-3.43,8.23-7.29,8.23S17.25,39.73,17.25,34.52Zm11.83,0c0-3.61-1.83-6.07-4.54-6.07S20,30.91,20,34.52s1.84,6,4.54,6S29.08,38.12,29.08,34.52Z"/><path class="cls-4" d="M36.27,36.6v-10h2.66v9.62c0,2.93.89,4.19,3,4.19,1.61,0,2.73-.8,4.22-2.65V26.63h2.66V42.36h-2.2l-.23-2.46h-.08c-1.46,1.72-3,2.85-5.19,2.85C37.76,42.75,36.27,40.61,36.27,36.6Z"/><path class="cls-4" d="M54.61,39.2V19.3h2.66V39.4c0,.81.36,1.13.75,1.13a2.47,2.47,0,0,0,.58-.06l.36,2a4.17,4.17,0,0,1-1.53.25C55.43,42.75,54.61,41.48,54.61,39.2Z"/><path class="cls-4" d="M62.26,34.52c0-5.11,3.22-8.28,6.81-8.28a6.47,6.47,0,0,1,4.41,1.82l-.11-2.7V19.3H76V42.36h-2.2l-.22-1.85h-.09a7,7,0,0,1-4.78,2.24C64.81,42.75,62.26,39.76,62.26,34.52Zm11.11,3.84V30.11a5.59,5.59,0,0,0-3.84-1.63c-2.52,0-4.52,2.43-4.52,6,0,3.77,1.56,6,4.32,6A5.43,5.43,0,0,0,73.37,38.36Z"/><path class="cls-4" d="M80.7,34.52c0-5.13,3.45-8.28,7.07-8.28,4,0,6.28,2.88,6.28,7.38a9,9,0,0,1-.12,1.51H83.33c.19,3.34,2.23,5.5,5.23,5.5a6.85,6.85,0,0,0,3.91-1.26l1,1.75a9.28,9.28,0,0,1-5.2,1.63C84,42.75,80.7,39.68,80.7,34.52Zm11-1.29c0-3.16-1.42-4.87-3.88-4.87-2.21,0-4.19,1.78-4.51,4.87Z"/><path class="cls-4" d="M98.44,26.63h2.2l.23,2.86H101c1.1-2,2.71-3.25,4.48-3.25a3.73,3.73,0,0,1,1.68.32l-.5,2.34a4.38,4.38,0,0,0-1.53-.26c-1.32,0-2.91,1-4,3.62v10.1H98.44Z"/><g class="cls-2"><path d="M111.22,40.17V20.06h2.69V40.37c0,.82.36,1.15.75,1.15a2.19,2.19,0,0,0,.59-.07l.36,2a4.22,4.22,0,0,1-1.55.26C112.05,43.76,111.22,42.47,111.22,40.17Z"/></g><path class="cls-3" d="M110.22,39.17V19.06h2.69V39.37c0,.82.36,1.15.75,1.15a2.19,2.19,0,0,0,.59-.07l.36,2a4.22,4.22,0,0,1-1.55.26C111.05,42.76,110.22,41.47,110.22,39.17Z"/><g class="cls-2"><path d="M119.1,39.24c0-3.47,3-5.2,9.76-5.94,0-2-.68-4-3.28-4a8.76,8.76,0,0,0-4.74,1.7l-1-1.84A11.65,11.65,0,0,1,126,27.07c3.88,0,5.52,2.58,5.52,6.54v9.75h-2.22l-.23-1.9H129a8.43,8.43,0,0,1-5.25,2.3A4.32,4.32,0,0,1,119.1,39.24Zm9.76.24V35.07c-5.33.64-7.13,1.94-7.13,4,0,1.8,1.23,2.54,2.79,2.54S127.32,40.84,128.86,39.48Z"/></g><path class="cls-3" d="M118.1,38.24c0-3.47,3-5.2,9.76-5.94,0-2-.68-4-3.28-4a8.76,8.76,0,0,0-4.74,1.7l-1-1.84A11.65,11.65,0,0,1,125,26.07c3.88,0,5.52,2.58,5.52,6.54v9.75h-2.22l-.23-1.9H128a8.43,8.43,0,0,1-5.25,2.3A4.32,4.32,0,0,1,118.1,38.24Zm9.76.24V34.07c-5.33.64-7.13,1.94-7.13,4,0,1.8,1.23,2.54,2.79,2.54S126.32,39.84,127.86,38.48Z"/><g class="cls-2"><path d="M139.58,41.72h-.09l-.25,1.64h-2.15V20.06h2.69v6.38l-.09,2.85a8,8,0,0,1,5-2.22c4.11,0,6.32,3.19,6.32,8.09,0,5.43-3.25,8.6-6.89,8.6A7.12,7.12,0,0,1,139.58,41.72Zm8.64-6.52c0-3.51-1.2-5.86-4.19-5.86-1.35,0-2.75.74-4.25,2.17v8.33a6.11,6.11,0,0,0,3.87,1.65C146.28,41.49,148.22,39.12,148.22,35.2Z"/></g><path class="cls-3" d="M138.58,40.72h-.09l-.25,1.64h-2.15V19.06h2.69v6.38l-.09,2.85a8,8,0,0,1,5-2.22c4.11,0,6.32,3.19,6.32,8.09,0,5.43-3.25,8.6-6.89,8.6A7.12,7.12,0,0,1,138.58,40.72Zm8.64-6.52c0-3.51-1.2-5.86-4.19-5.86-1.35,0-2.75.74-4.25,2.17v8.33a6.11,6.11,0,0,0,3.87,1.65C145.28,40.49,147.22,38.12,147.22,34.2Z"/></g></g></g></svg>